DinishCondensed-Italic.ufo
<glyph name="ampersand" format="2">
  <advance width="531"/>
  <unicode hex="0026"/>
  <outline>
    <contour>
      <point x="439" y="69" type="line"/>
      <point x="425" y="-1" type="line"/>
      <point x="391" y="-1" type="line" smooth="yes"/>
      <point x="365" y="-1"/>
      <point x="341" y="18"/>
      <point x="331" y="45" type="qcurve" smooth="yes"/>
      <point x="317" y="79" type="line"/>
      <point x="276" y="32"/>
      <point x="193" y="-10"/>
      <point x="145" y="-10" type="qcurve" smooth="yes"/>
      <point x="75" y="-10"/>
      <point x="12" y="78"/>
      <point x="27" y="151" type="qcurve" smooth="yes"/>
      <point x="38" y="204"/>
      <point x="119" y="310"/>
      <point x="201" y="384" type="qcurve"/>
      <point x="198" y="392" type="line" smooth="yes"/>
      <point x="170" y="463"/>
      <point x="153" y="540"/>
      <point x="161" y="575" type="qcurve" smooth="yes"/>
      <point x="174" y="638"/>
      <point x="268" y="717"/>
      <point x="328" y="717" type="qcurve" smooth="yes"/>
      <point x="389" y="717"/>
      <point x="451" y="639"/>
      <point x="438" y="575" type="qcurve" smooth="yes"/>
      <point x="428" y="529"/>
      <point x="362" y="440"/>
      <point x="288" y="376" type="qcurve"/>
      <point x="350" y="212" type="line"/>
      <point x="425" y="304" type="line"/>
      <point x="473" y="268" type="line"/>
      <point x="375" y="148" type="line"/>
      <point x="394" y="99" type="line" smooth="yes"/>
      <point x="400" y="82"/>
      <point x="415" y="69"/>
      <point x="428" y="69" type="qcurve" smooth="yes"/>
    </contour>
    <contour>
      <point x="236" y="578" type="qcurve" smooth="yes"/>
      <point x="231" y="555"/>
      <point x="242" y="497"/>
      <point x="263" y="440" type="qcurve"/>
      <point x="315" y="488"/>
      <point x="358" y="546"/>
      <point x="364" y="578" type="qcurve" smooth="yes"/>
      <point x="372" y="614"/>
      <point x="346" y="653"/>
      <point x="317" y="653" type="qcurve" smooth="yes"/>
      <point x="287" y="653"/>
      <point x="243" y="612"/>
    </contour>
    <contour>
      <point x="293" y="142" type="qcurve"/>
      <point x="226" y="321" type="line"/>
      <point x="167" y="268"/>
      <point x="111" y="193"/>
      <point x="103" y="155" type="qcurve" smooth="yes"/>
      <point x="94" y="110"/>
      <point x="127" y="60"/>
      <point x="165" y="60" type="qcurve" smooth="yes"/>
      <point x="195" y="60"/>
      <point x="254" y="96"/>
    </contour>
  </outline>
</glyph>
<glyph name="parenleft" format="2">
  <advance width="265"/>
  <unicode hex="0028"/>
  <outline>
    <contour>
      <point x="43" y="228"/>
      <point x="66" y="336" type="qcurve" smooth="yes"/>
      <point x="89" y="445"/>
      <point x="185" y="659"/>
      <point x="257" y="758" type="qcurve"/>
      <point x="317" y="758" type="line"/>
      <point x="251" y="657"/>
      <point x="159" y="441"/>
      <point x="137" y="336" type="qcurve" smooth="yes"/>
      <point x="115" y="231"/>
      <point x="117" y="14"/>
      <point x="141" y="-86" type="qcurve"/>
      <point x="81" y="-86" type="line"/>
      <point x="51" y="13"/>
    </contour>
  </outline>
</glyph>
<glyph name="parenright" format="2">
  <advance width="265"/>
  <unicode hex="0029"/>
  <outline>
    <contour>
      <point x="136" y="230"/>
      <point x="158" y="336" type="qcurve" smooth="yes"/>
      <point x="180" y="441"/>
      <point x="177" y="656"/>
      <point x="154" y="758" type="qcurve"/>
      <point x="215" y="758" type="line"/>
      <point x="244" y="660"/>
      <point x="251" y="444"/>
      <point x="229" y="336" type="qcurve" smooth="yes"/>
      <point x="206" y="228"/>
      <point x="110" y="13"/>
      <point x="39" y="-86" type="qcurve"/>
      <point x="-22" y="-86" type="line"/>
      <point x="44" y="14"/>
    </contour>
  </outline>
</glyph>
<glyph name="comma" format="2">
  <advance width="153"/>
  <unicode hex="002C"/>
  <outline>
    <contour>
      <point x="7" y="95" type="line"/>
      <point x="77" y="95" type="line"/>
      <point x="40" y="-84" type="line"/>
      <point x="-43" y="-144" type="line"/>
    </contour>
  </outline>
</glyph>
<glyph name="period" format="2">
  <advance width="163"/>
  <unicode hex="002E"/>
  <outline>
    <contour>
      <point x="6" y="91" type="line"/>
      <point x="86" y="91" type="line"/>
      <point x="67" y="0" type="line"/>
      <point x="-13" y="0" type="line"/>
    </contour>
  </outline>
</glyph>
<glyph name="zero" format="2">
  <advance width="412"/>
  <unicode hex="0030"/>
  <outline>
    <contour>
      <point x="35" y="178" type="qcurve" smooth="yes"/>
      <point x="108" y="529" type="line" smooth="yes"/>
      <point x="147" y="715"/>
      <point x="301" y="716" type="qcurve" smooth="yes"/>
      <point x="454" y="716"/>
      <point x="414" y="529" type="qcurve" smooth="yes"/>
      <point x="341" y="178" type="line" smooth="yes"/>
      <point x="302" y="-9"/>
      <point x="150" y="-9" type="qcurve" smooth="yes"/>
      <point x="-4" y="-9"/>
    </contour>
    <contour>
      <point x="254" y="117"/>
      <point x="269" y="189" type="qcurve" smooth="yes"/>
      <point x="337" y="517" type="line" smooth="yes"/>
      <point x="353" y="590"/>
      <point x="331" y="649"/>
      <point x="287" y="649" type="qcurve" smooth="yes"/>
      <point x="243" y="649"/>
      <point x="196" y="590"/>
      <point x="180" y="517" type="qcurve" smooth="yes"/>
      <point x="112" y="189" type="line" smooth="yes"/>
      <point x="97" y="116"/>
      <point x="120" y="57"/>
      <point x="164" y="57" type="qcurve" smooth="yes"/>
      <point x="208" y="57"/>
    </contour>
  </outline>
</glyph>
<glyph name="two" format="2">
  <advance width="401"/>
  <unicode hex="0032"/>
  <outline>
    <contour>
      <point x="5" y="59" type="line"/>
      <point x="274" y="407" type="line" smooth="yes"/>
      <point x="297" y="437"/>
      <point x="327" y="493"/>
      <point x="334" y="527" type="qcurve" smooth="yes"/>
      <point x="340" y="556" type="line" smooth="yes"/>
      <point x="349" y="601"/>
      <point x="319" y="649"/>
      <point x="278" y="649" type="qcurve" smooth="yes"/>
      <point x="243" y="649"/>
      <point x="192" y="601"/>
      <point x="183" y="557" type="qcurve" smooth="yes"/>
      <point x="174" y="516" type="line"/>
      <point x="100" y="516" type="line"/>
      <point x="110" y="564" type="line" smooth="yes"/>
      <point x="125" y="634"/>
      <point x="224" y="716"/>
      <point x="295" y="716" type="qcurve" smooth="yes"/>
      <point x="366" y="716"/>
      <point x="430" y="634"/>
      <point x="415" y="565" type="qcurve" smooth="yes"/>
      <point x="408" y="527" type="line" smooth="yes"/>
      <point x="398" y="483"/>
      <point x="362" y="414"/>
      <point x="328" y="372" type="qcurve" smooth="yes"/>
      <point x="93" y="67" type="line"/>
      <point x="309" y="67" type="line"/>
      <point x="295" y="0" type="line"/>
      <point x="-7" y="0" type="line"/>
    </contour>
  </outline>
</glyph>
<glyph name="two.tosf" format="2">
  <advance width="418"/>
  <unicode hex="0032"/>
  <outline>
    <contour>
      <point x="14" y="59" type="line"/>
      <point x="263" y="314" type="line" smooth="yes"/>
      <point x="285" y="336"/>
      <point x="307" y="357"/>
      <point x="312" y="382" type="qcurve" smooth="yes"/>
      <point x="317" y="403" type="line" smooth="yes"/>
      <point x="324" y="436"/>
      <point x="291" y="471"/>
      <point x="250" y="471" type="qcurve" smooth="yes"/>
      <point x="215" y="471"/>
      <point x="167" y="436"/>
      <point x="160" y="403" type="qcurve" smooth="yes"/>
      <point x="158" y="394" type="line"/>
      <point x="84" y="394" type="line"/>
      <point x="91" y="429" type="line" smooth="yes"/>
      <point x="102" y="480"/>
      <point x="196" y="539"/>
      <point x="267" y="539" type="qcurve" smooth="yes"/>
      <point x="338" y="539"/>
      <point x="403" y="460"/>
      <point x="392" y="409" type="qcurve" smooth="yes"/>
      <point x="386" y="382" type="line" smooth="yes"/>
      <point x="380" y="350"/>
      <point x="351" y="320"/>
      <point x="320" y="289" type="qcurve" smooth="yes"/>
      <point x="102" y="67" type="line"/>
      <point x="318" y="67" type="line"/>
      <point x="304" y="0" type="line"/>
      <point x="2" y="0" type="line"/>
    </contour>
  </outline>
</glyph>
<glyph name="five" format="2">
  <advance width="407"/>
  <unicode hex="0035"/>
  <outline>
    <contour>
      <point x="13" y="72"/>
      <point x="29" y="150" type="qcurve" smooth="yes"/>
      <point x="33" y="168" type="line"/>
      <point x="104" y="168" type="line"/>
      <point x="100" y="151" type="line" smooth="yes"/>
      <point x="81" y="58"/>
      <point x="159" y="57" type="qcurve" smooth="yes"/>
      <point x="199" y="57"/>
      <point x="247" y="106"/>
      <point x="258" y="159" type="qcurve" smooth="yes"/>
      <point x="284" y="286" type="line" smooth="yes"/>
      <point x="295" y="338"/>
      <point x="268" y="387"/>
      <point x="228" y="387" type="qcurve" smooth="yes"/>
      <point x="177" y="387"/>
      <point x="140" y="337" type="qcurve"/>
      <point x="76" y="337" type="line"/>
      <point x="153" y="707" type="line"/>
      <point x="440" y="707" type="line"/>
      <point x="425" y="637" type="line"/>
      <point x="208" y="637" type="line"/>
      <point x="163" y="420" type="line"/>
      <point x="180" y="435"/>
      <point x="228" y="454"/>
      <point x="256" y="454" type="qcurve" smooth="yes"/>
      <point x="393" y="454"/>
      <point x="359" y="287" type="qcurve" smooth="yes"/>
      <point x="333" y="162" type="line" smooth="yes"/>
      <point x="297" y="-9"/>
      <point x="146" y="-9" type="qcurve" smooth="yes"/>
      <point x="73" y="-9"/>
    </contour>
  </outline>
</glyph>
<glyph name="five.tosf" format="2">
  <advance width="418"/>
  <unicode hex="0035"/>
  <outline>
    <contour>
      <point x="-13" y="-81"/>
      <point x="3" y="-3" type="qcurve" smooth="yes"/>
      <point x="7" y="15" type="line"/>
      <point x="78" y="15" type="line"/>
      <point x="75" y="-2" type="line" smooth="yes"/>
      <point x="55" y="-95"/>
      <point x="133" y="-96" type="qcurve" smooth="yes"/>
      <point x="173" y="-96"/>
      <point x="221" y="-47"/>
      <point x="232" y="6" type="qcurve" smooth="yes"/>
      <point x="256" y="120" type="line" smooth="yes"/>
      <point x="267" y="172"/>
      <point x="240" y="221"/>
      <point x="200" y="221" type="qcurve" smooth="yes"/>
      <point x="149" y="221"/>
      <point x="112" y="171" type="qcurve"/>
      <point x="48" y="171" type="line"/>
      <point x="122" y="529" type="line"/>
      <point x="409" y="529" type="line"/>
      <point x="394" y="459" type="line"/>
      <point x="177" y="459" type="line"/>
      <point x="135" y="254" type="line"/>
      <point x="152" y="269"/>
      <point x="200" y="288"/>
      <point x="228" y="288" type="qcurve" smooth="yes"/>
      <point x="365" y="288"/>
      <point x="330" y="121" type="qcurve" smooth="yes"/>
      <point x="307" y="9" type="line" smooth="yes"/>
      <point x="271" y="-162"/>
      <point x="120" y="-162" type="qcurve" smooth="yes"/>
      <point x="47" y="-162"/>
    </contour>
  </outline>
</glyph>
<glyph name="colon" format="2">
  <advance width="163"/>
  <unicode hex="003A"/>
  <outline>
    <contour>
      <point x="6" y="91" type="line"/>
      <point x="86" y="91" type="line"/>
      <point x="67" y="0" type="line"/>
      <point x="-13" y="0" type="line"/>
    </contour>
    <contour>
      <point x="78" y="437" type="line"/>
      <point x="158" y="437" type="line"/>
      <point x="139" y="346" type="line"/>
      <point x="59" y="346" type="line"/>
    </contour>
  </outline>
</glyph>
<glyph name="B" format="2">
  <advance width="481"/>
  <unicode hex="0042"/>
  <outline>
    <contour>
      <point x="414" y="195" type="qcurve" smooth="yes"/>
      <point x="394" y="99"/>
      <point x="284" y="0"/>
      <point x="188" y="0" type="qcurve" smooth="yes"/>
      <point x="6" y="0" type="line"/>
      <point x="153" y="707" type="line"/>
      <point x="334" y="707" type="line" smooth="yes"/>
      <point x="428" y="707"/>
      <point x="494" y="615"/>
      <point x="475" y="522" type="qcurve" smooth="yes"/>
      <point x="449" y="401"/>
      <point x="349" y="367" type="qcurve"/>
      <point x="443" y="339"/>
    </contour>
    <contour>
      <point x="214" y="640" type="line"/>
      <point x="164" y="399" type="line"/>
      <point x="264" y="399" type="line" smooth="yes"/>
      <point x="375" y="399"/>
      <point x="399" y="518" type="qcurve" smooth="yes"/>
      <point x="412" y="584"/>
      <point x="372" y="640"/>
      <point x="315" y="640" type="qcurve" smooth="yes"/>
    </contour>
    <contour>
      <point x="325" y="132"/>
      <point x="340" y="200" type="qcurve" smooth="yes"/>
      <point x="367" y="333"/>
      <point x="251" y="333" type="qcurve" smooth="yes"/>
      <point x="150" y="333" type="line"/>
      <point x="95" y="67" type="line"/>
      <point x="196" y="67" type="line" smooth="yes"/>
      <point x="257" y="67"/>
    </contour>
  </outline>
</glyph>
<glyph name="C" format="2">
  <advance width="489"/>
  <unicode hex="0043"/>
  <outline>
    <contour>
      <point x="19" y="99"/>
      <point x="41" y="206" type="qcurve" smooth="yes"/>
      <point x="102" y="501" type="line" smooth="yes"/>
      <point x="125" y="609"/>
      <point x="253" y="716"/>
      <point x="340" y="716" type="qcurve" smooth="yes"/>
      <point x="424" y="716"/>
      <point x="508" y="613"/>
      <point x="487" y="510" type="qcurve" smooth="yes"/>
      <point x="485" y="501" type="line"/>
      <point x="410" y="501" type="line"/>
      <point x="412" y="508" type="line" smooth="yes"/>
      <point x="427" y="581"/>
      <point x="379" y="648"/>
      <point x="327" y="648" type="qcurve" smooth="yes"/>
      <point x="268" y="648"/>
      <point x="192" y="573"/>
      <point x="176" y="494" type="qcurve" smooth="yes"/>
      <point x="116" y="205" type="line" smooth="yes"/>
      <point x="85" y="60"/>
      <point x="204" y="59" type="qcurve" smooth="yes"/>
      <point x="257" y="59"/>
      <point x="332" y="127"/>
      <point x="347" y="197" type="qcurve" smooth="yes"/>
      <point x="349" y="206" type="line"/>
      <point x="422" y="206" type="line"/>
      <point x="420" y="196" type="line" smooth="yes"/>
      <point x="399" y="94"/>
      <point x="273" y="-8"/>
      <point x="190" y="-8" type="qcurve" smooth="yes"/>
      <point x="103" y="-8"/>
    </contour>
  </outline>
</glyph>
<glyph name="G" format="2">
  <advance width="489"/>
  <unicode hex="0047"/>
  <outline>
    <contour>
      <point x="19" y="99"/>
      <point x="41" y="206" type="qcurve" smooth="yes"/>
      <point x="102" y="501" type="line" smooth="yes"/>
      <point x="125" y="609"/>
      <point x="253" y="716"/>
      <point x="340" y="716" type="qcurve" smooth="yes"/>
      <point x="425" y="716"/>
      <point x="509" y="614"/>
      <point x="489" y="520" type="qcurve" smooth="yes"/>
      <point x="487" y="508" type="line"/>
      <point x="412" y="508" type="line"/>
      <point x="414" y="520" type="line" smooth="yes"/>
      <point x="427" y="581"/>
      <point x="379" y="648"/>
      <point x="326" y="648" type="qcurve" smooth="yes"/>
      <point x="208" y="648"/>
      <point x="176" y="494" type="qcurve" smooth="yes"/>
      <point x="116" y="205" type="line" smooth="yes"/>
      <point x="85" y="60"/>
      <point x="203" y="59" type="qcurve" smooth="yes"/>
      <point x="259" y="59"/>
      <point x="333" y="130"/>
      <point x="348" y="202" type="qcurve" smooth="yes"/>
      <point x="368" y="300" type="line"/>
      <point x="252" y="300" type="line"/>
      <point x="265" y="362" type="line"/>
      <point x="456" y="362" type="line"/>
      <point x="424" y="205" type="line" smooth="yes"/>
      <point x="402" y="99"/>
      <point x="275" y="-8"/>
      <point x="189" y="-8" type="qcurve" smooth="yes"/>
      <point x="102" y="-8"/>
    </contour>
  </outline>
</glyph>
<glyph name="J" format="2">
  <advance width="269"/>
  <unicode hex="004A"/>
  <outline>
    <contour>
      <point x="-16" y="67" type="line"/>
      <point x="13" y="67" type="line" smooth="yes"/>
      <point x="49" y="67"/>
      <point x="95" y="109"/>
      <point x="103" y="148" type="qcurve" smooth="yes"/>
      <point x="219" y="707" type="line"/>
      <point x="294" y="707" type="line"/>
      <point x="176" y="140" type="line" smooth="yes"/>
      <point x="162" y="71"/>
      <point x="74" y="0"/>
      <point x="5" y="0" type="qcurve" smooth="yes"/>
      <point x="-30" y="0" type="line"/>
    </contour>
  </outline>
</glyph>
<glyph name="P" format="2">
  <advance width="450"/>
  <unicode hex="0050"/>
  <outline>
    <contour>
      <point x="496" y="603"/>
      <point x="475" y="501" type="qcurve" smooth="yes"/>
      <point x="433" y="299"/>
      <point x="252" y="299" type="qcurve" smooth="yes"/>
      <point x="143" y="299" type="line"/>
      <point x="81" y="0" type="line"/>
      <point x="6" y="0" type="line"/>
      <point x="153" y="707" type="line"/>
      <point x="337" y="707" type="line" smooth="yes"/>
      <point x="431" y="707"/>
    </contour>
    <contour>
      <point x="386" y="429"/>
      <point x="401" y="501" type="qcurve" smooth="yes"/>
      <point x="417" y="575"/>
      <point x="376" y="640"/>
      <point x="319" y="640" type="qcurve" smooth="yes"/>
      <point x="214" y="640" type="line"/>
      <point x="157" y="366" type="line"/>
      <point x="262" y="366" type="line" smooth="yes"/>
      <point x="319" y="366"/>
    </contour>
  </outline>
</glyph>
<glyph name="R" format="2">
  <advance width="477"/>
  <unicode hex="0052"/>
  <outline>
    <contour>
      <point x="259" y="309" type="line"/>
      <point x="145" y="309" type="line"/>
      <point x="81" y="0" type="line"/>
      <point x="6" y="0" type="line"/>
      <point x="153" y="707" type="line"/>
      <point x="340" y="707" type="line" smooth="yes"/>
      <point x="433" y="707"/>
      <point x="497" y="608"/>
      <point x="476" y="507" type="qcurve" smooth="yes"/>
      <point x="445" y="355"/>
      <point x="334" y="321" type="qcurve"/>
      <point x="391" y="0" type="line"/>
      <point x="312" y="0" type="line"/>
    </contour>
    <contour>
      <point x="159" y="375" type="line"/>
      <point x="270" y="375" type="line" smooth="yes"/>
      <point x="324" y="375"/>
      <point x="388" y="441"/>
      <point x="401" y="507" type="qcurve" smooth="yes"/>
      <point x="415" y="574"/>
      <point x="381" y="640"/>
      <point x="325" y="640" type="qcurve" smooth="yes"/>
      <point x="214" y="640" type="line"/>
    </contour>
  </outline>
</glyph>
<glyph name="S" format="2">
  <advance width="436"/>
  <unicode hex="0053"/>
  <outline>
    <contour>
      <point x="12" y="194" type="qcurve"/>
      <point x="84" y="194" type="line"/>
      <point x="72" y="122"/>
      <point x="118" y="59"/>
      <point x="172" y="59" type="qcurve" smooth="yes"/>
      <point x="227" y="59"/>
      <point x="295" y="122"/>
      <point x="309" y="186" type="qcurve" smooth="yes"/>
      <point x="320" y="242"/>
      <point x="283" y="300"/>
      <point x="227" y="326" type="qcurve" smooth="yes"/>
      <point x="189" y="342" type="line" smooth="yes"/>
      <point x="125" y="370"/>
      <point x="74" y="456"/>
      <point x="89" y="528" type="qcurve" smooth="yes"/>
      <point x="107" y="614"/>
      <point x="225" y="717"/>
      <point x="310" y="717" type="qcurve" smooth="yes"/>
      <point x="391" y="717"/>
      <point x="465" y="622"/>
      <point x="449" y="526" type="qcurve"/>
      <point x="379" y="526" type="line"/>
      <point x="398" y="650"/>
      <point x="295" y="650" type="qcurve" smooth="yes"/>
      <point x="242" y="650"/>
      <point x="176" y="589"/>
      <point x="165" y="532" type="qcurve" smooth="yes"/>
      <point x="154" y="482"/>
      <point x="190" y="425"/>
      <point x="244" y="402" type="qcurve" smooth="yes"/>
      <point x="282" y="386" type="line" smooth="yes"/>
      <point x="347" y="358"/>
      <point x="400" y="268"/>
      <point x="383" y="187" type="qcurve" smooth="yes"/>
      <point x="364" y="94"/>
      <point x="247" y="-7"/>
      <point x="156" y="-7" type="qcurve" smooth="yes"/>
      <point x="66" y="-7"/>
      <point x="-6" y="95"/>
    </contour>
  </outline>
</glyph>
<glyph name="X" format="2">
  <advance width="425"/>
  <unicode hex="0058"/>
  <outline>
    <contour>
      <point x="191" y="367" type="line"/>
      <point x="115" y="707" type="line"/>
      <point x="198" y="707" type="line"/>
      <point x="251" y="441" type="line"/>
      <point x="411" y="707" type="line"/>
      <point x="495" y="707" type="line"/>
      <point x="277" y="368" type="line"/>
      <point x="362" y="0" type="line"/>
      <point x="277" y="0" type="line"/>
      <point x="219" y="293" type="line"/>
      <point x="38" y="0" type="line"/>
      <point x="-46" y="0" type="line"/>
    </contour>
  </outline>
</glyph>
<glyph name="f" format="2">
  <advance width="294"/>
  <unicode hex="0066"/>
  <outline>
    <contour>
      <point x="246" y="616"/>
      <point x="238" y="578" type="qcurve" smooth="yes"/>
      <point x="228" y="529" type="line"/>
      <point x="319" y="529" type="line"/>
      <point x="308" y="475" type="line"/>
      <point x="217" y="475" type="line"/>
      <point x="118" y="0" type="line"/>
      <point x="48" y="0" type="line"/>
      <point x="147" y="475" type="line"/>
      <point x="84" y="475" type="line"/>
      <point x="95" y="529" type="line"/>
      <point x="158" y="529" type="line"/>
      <point x="166" y="568" type="line" smooth="yes"/>
      <point x="180" y="636"/>
      <point x="264" y="707"/>
      <point x="330" y="707" type="qcurve" smooth="yes"/>
      <point x="356" y="707" type="line"/>
      <point x="344" y="651" type="line"/>
      <point x="324" y="651" type="line" smooth="yes"/>
      <point x="286" y="651"/>
    </contour>
  </outline>
</glyph>
<glyph name="h" format="2">
  <advance width="425"/>
  <unicode hex="0068"/>
  <outline>
    <contour>
      <point x="152" y="707" type="line"/>
      <point x="222" y="707" type="line"/>
      <point x="175" y="483" type="line"/>
      <point x="197" y="509"/>
      <point x="258" y="538"/>
      <point x="289" y="538" type="qcurve" smooth="yes"/>
      <point x="352" y="538"/>
      <point x="406" y="457"/>
      <point x="391" y="383" type="qcurve" smooth="yes"/>
      <point x="311" y="0" type="line"/>
      <point x="241" y="0" type="line"/>
      <point x="320" y="380" type="line" smooth="yes"/>
      <point x="330" y="426"/>
      <point x="295" y="475"/>
      <point x="257" y="475" type="qcurve" smooth="yes"/>
      <point x="220" y="475"/>
      <point x="164" y="426"/>
      <point x="154" y="380" type="qcurve" smooth="yes"/>
      <point x="75" y="0" type="line"/>
      <point x="5" y="0" type="line"/>
    </contour>
  </outline>
</glyph>
<glyph name="l" format="2">
  <advance width="239"/>
  <unicode hex="006C"/>
  <outline>
    <contour>
      <point x="20" y="72"/>
      <point x="34" y="140" type="qcurve" smooth="yes"/>
      <point x="152" y="707" type="line"/>
      <point x="223" y="707" type="line"/>
      <point x="106" y="143" type="line" smooth="yes"/>
      <point x="89" y="62"/>
      <point x="162" y="62" type="qcurve" smooth="yes"/>
      <point x="177" y="62" type="line"/>
      <point x="164" y="0" type="line"/>
      <point x="147" y="0" type="line" smooth="yes"/>
      <point x="78" y="0"/>
    </contour>
  </outline>
</glyph>
<glyph name="m" format="2">
  <advance width="661"/>
  <unicode hex="006D"/>
  <outline>
    <contour>
      <point x="115" y="529" type="line"/>
      <point x="184" y="529" type="line"/>
      <point x="174" y="481" type="line"/>
      <point x="194" y="507"/>
      <point x="256" y="538"/>
      <point x="289" y="538" type="qcurve" smooth="yes"/>
      <point x="327" y="538"/>
      <point x="379" y="502"/>
      <point x="390" y="471" type="qcurve"/>
      <point x="416" y="503"/>
      <point x="484" y="538"/>
      <point x="521" y="538" type="qcurve" smooth="yes"/>
      <point x="589" y="538"/>
      <point x="641" y="457"/>
      <point x="626" y="383" type="qcurve" smooth="yes"/>
      <point x="546" y="0" type="line"/>
      <point x="475" y="0" type="line"/>
      <point x="554" y="380" type="line" smooth="yes"/>
      <point x="564" y="426"/>
      <point x="530" y="475"/>
      <point x="494" y="475" type="qcurve" smooth="yes"/>
      <point x="456" y="475"/>
      <point x="399" y="425"/>
      <point x="390" y="381" type="qcurve" smooth="yes"/>
      <point x="311" y="0" type="line"/>
      <point x="241" y="0" type="line"/>
      <point x="320" y="380" type="line" smooth="yes"/>
      <point x="329" y="425"/>
      <point x="295" y="475"/>
      <point x="257" y="475" type="qcurve" smooth="yes"/>
      <point x="220" y="475"/>
      <point x="164" y="425"/>
      <point x="155" y="380" type="qcurve" smooth="yes"/>
      <point x="76" y="0" type="line"/>
      <point x="5" y="0" type="line"/>
    </contour>
  </outline>
</glyph>
<glyph name="n" format="2">
  <advance width="425"/>
  <unicode hex="006E"/>
  <outline>
    <contour>
      <point x="115" y="529" type="line"/>
      <point x="183" y="529" type="line"/>
      <point x="173" y="481" type="line"/>
      <point x="193" y="507"/>
      <point x="256" y="538"/>
      <point x="289" y="538" type="qcurve" smooth="yes"/>
      <point x="352" y="538"/>
      <point x="406" y="456"/>
      <point x="391" y="383" type="qcurve" smooth="yes"/>
      <point x="311" y="0" type="line"/>
      <point x="241" y="0" type="line"/>
      <point x="320" y="380" type="line" smooth="yes"/>
      <point x="330" y="426"/>
      <point x="295" y="475"/>
      <point x="257" y="475" type="qcurve" smooth="yes"/>
      <point x="220" y="475"/>
      <point x="163" y="425"/>
      <point x="154" y="380" type="qcurve" smooth="yes"/>
      <point x="75" y="0" type="line"/>
      <point x="5" y="0" type="line"/>
    </contour>
  </outline>
</glyph>
<glyph name="q" format="2">
  <advance width="421"/>
  <unicode hex="0071"/>
  <outline>
    <contour>
      <point x="247" y="47" type="line"/>
      <point x="200" y="-8"/>
      <point x="133" y="-8" type="qcurve" smooth="yes"/>
      <point x="71" y="-8"/>
      <point x="13" y="81"/>
      <point x="32" y="172" type="qcurve" smooth="yes"/>
      <point x="70" y="357" type="line" smooth="yes"/>
      <point x="89" y="448"/>
      <point x="185" y="538"/>
      <point x="248" y="538" type="qcurve" smooth="yes"/>
      <point x="314" y="538"/>
      <point x="336" y="478" type="qcurve"/>
      <point x="347" y="529" type="line"/>
      <point x="416" y="529" type="line"/>
      <point x="274" y="-156" type="line"/>
      <point x="205" y="-156" type="line"/>
    </contour>
    <contour>
      <point x="262" y="118"/>
      <point x="274" y="179" type="qcurve" smooth="yes"/>
      <point x="309" y="348" type="line" smooth="yes"/>
      <point x="336" y="475"/>
      <point x="248" y="475" type="qcurve" smooth="yes"/>
      <point x="165" y="475"/>
      <point x="139" y="349" type="qcurve" smooth="yes"/>
      <point x="103" y="180" type="line" smooth="yes"/>
      <point x="89" y="112"/>
      <point x="119" y="54"/>
      <point x="160" y="54" type="qcurve" smooth="yes"/>
      <point x="203" y="54"/>
    </contour>
  </outline>
</glyph>
<glyph name="r" format="2">
  <advance width="296"/>
  <unicode hex="0072"/>
  <outline>
    <contour>
      <point x="115" y="529" type="line"/>
      <point x="183" y="529" type="line"/>
      <point x="172" y="477" type="line"/>
      <point x="196" y="508"/>
      <point x="260" y="538"/>
      <point x="296" y="538" type="qcurve" smooth="yes"/>
      <point x="318" y="538"/>
      <point x="332" y="534" type="qcurve"/>
      <point x="318" y="466" type="line"/>
      <point x="292" y="475"/>
      <point x="269" y="475" type="qcurve" smooth="yes"/>
      <point x="227" y="475"/>
      <point x="163" y="422"/>
      <point x="153" y="376" type="qcurve" smooth="yes"/>
      <point x="75" y="0" type="line"/>
      <point x="5" y="0" type="line"/>
    </contour>
  </outline>
</glyph>
<glyph name="s" format="2">
  <advance width="391"/>
  <unicode hex="0073"/>
  <outline>
    <contour>
      <point x="1" y="73"/>
      <point x="16" y="142" type="qcurve" smooth="yes"/>
      <point x="17" y="148" type="line"/>
      <point x="81" y="148" type="line"/>
      <point x="80" y="142" type="line" smooth="yes"/>
      <point x="71" y="99"/>
      <point x="111" y="53"/>
      <point x="154" y="53" type="qcurve" smooth="yes"/>
      <point x="194" y="53"/>
      <point x="251" y="95"/>
      <point x="260" y="138" type="qcurve" smooth="yes"/>
      <point x="267" y="172"/>
      <point x="242" y="211"/>
      <point x="206" y="227" type="qcurve" smooth="yes"/>
      <point x="145" y="255" type="line" smooth="yes"/>
      <point x="53" y="297"/>
      <point x="73" y="393" type="qcurve" smooth="yes"/>
      <point x="86" y="459"/>
      <point x="186" y="538"/>
      <point x="256" y="538" type="qcurve" smooth="yes"/>
      <point x="326" y="538"/>
      <point x="389" y="458"/>
      <point x="375" y="390" type="qcurve" smooth="yes"/>
      <point x="372" y="377" type="line"/>
      <point x="308" y="377" type="line"/>
      <point x="310" y="383" type="line" smooth="yes"/>
      <point x="319" y="428"/>
      <point x="284" y="477"/>
      <point x="242" y="477" type="qcurve" smooth="yes"/>
      <point x="204" y="477"/>
      <point x="151" y="435"/>
      <point x="144" y="398" type="qcurve" smooth="yes"/>
      <point x="138" y="370"/>
      <point x="158" y="330"/>
      <point x="190" y="314" type="qcurve" smooth="yes"/>
      <point x="252" y="287" type="line" smooth="yes"/>
      <point x="301" y="264"/>
      <point x="342" y="201"/>
      <point x="330" y="143" type="qcurve" smooth="yes"/>
      <point x="315" y="71"/>
      <point x="213" y="-8"/>
      <point x="139" y="-8" type="qcurve" smooth="yes"/>
      <point x="67" y="-8"/>
    </contour>
  </outline>
</glyph>
<glyph name="y" format="2">
  <advance width="379"/>
  <unicode hex="0079"/>
  <outline>
    <contour>
      <point x="420" y="529" type="line"/>
      <point x="145" y="-50" type="line" smooth="yes"/>
      <point x="117" y="-109"/>
      <point x="33" y="-158"/>
      <point x="-32" y="-158" type="qcurve" smooth="yes"/>
      <point x="-42" y="-158" type="line"/>
      <point x="-29" y="-95" type="line"/>
      <point x="-12" y="-95" type="line" smooth="yes"/>
      <point x="28" y="-95"/>
      <point x="77" y="-65"/>
      <point x="94" y="-29" type="qcurve" smooth="yes"/>
      <point x="102" y="-12" type="line"/>
      <point x="70" y="529" type="line"/>
      <point x="146" y="529" type="line"/>
      <point x="162" y="125" type="line"/>
      <point x="344" y="529" type="line"/>
    </contour>
  </outline>
</glyph>
<glyph name="braceleft" format="2">
  <advance width="314"/>
  <unicode hex="007B"/>
  <outline>
    <contour>
      <point x="58" y="-29"/>
      <point x="70" y="30" type="qcurve" smooth="yes"/>
      <point x="111" y="228" type="line" smooth="yes"/>
      <point x="120" y="269"/>
      <point x="97" y="305"/>
      <point x="60" y="306" type="qcurve"/>
      <point x="73" y="371" type="line"/>
      <point x="111" y="372"/>
      <point x="149" y="408"/>
      <point x="158" y="451" type="qcurve" smooth="yes"/>
      <point x="197" y="642" type="line" smooth="yes"/>
      <point x="210" y="700"/>
      <point x="273" y="758"/>
      <point x="326" y="758" type="qcurve" smooth="yes"/>
      <point x="366" y="758" type="line"/>
      <point x="352" y="691" type="line"/>
      <point x="327" y="691" type="line" smooth="yes"/>
      <point x="282" y="691"/>
      <point x="271" y="641" type="qcurve" smooth="yes"/>
      <point x="235" y="467" type="line" smooth="yes"/>
      <point x="223" y="407"/>
      <point x="187" y="352"/>
      <point x="149" y="339" type="qcurve"/>
      <point x="181" y="324"/>
      <point x="194" y="270"/>
      <point x="182" y="210" type="qcurve" smooth="yes"/>
      <point x="144" y="31" type="line" smooth="yes"/>
      <point x="134" y="-19"/>
      <point x="179" y="-19" type="qcurve" smooth="yes"/>
      <point x="204" y="-19" type="line"/>
      <point x="190" y="-86" type="line"/>
      <point x="150" y="-86" type="line" smooth="yes"/>
      <point x="97" y="-86"/>
    </contour>
  </outline>
</glyph>
<glyph name="exclamdown" format="2">
  <advance width="208"/>
  <unicode hex="00A1"/>
  <outline>
    <contour>
      <point x="124" y="529" type="line"/>
      <point x="203" y="529" type="line"/>
      <point x="182" y="430" type="line"/>
      <point x="103" y="430" type="line"/>
    </contour>
    <contour>
      <point x="94" y="333" type="line"/>
      <point x="152" y="333" type="line"/>
      <point x="70" y="-156" type="line"/>
      <point x="-25" y="-156" type="line"/>
    </contour>
  </outline>
</glyph>
<glyph name="sterling" format="2">
  <advance width="392"/>
  <unicode hex="00A3"/>
  <outline>
    <contour>
      <point x="325" y="68" type="line"/>
      <point x="311" y="0" type="line"/>
      <point x="-11" y="0" type="line"/>
      <point x="4" y="70" type="line"/>
      <point x="32" y="82"/>
      <point x="61" y="129"/>
      <point x="69" y="168" type="qcurve" smooth="yes"/>
      <point x="98" y="310" type="line"/>
      <point x="36" y="310" type="line"/>
      <point x="50" y="377" type="line"/>
      <point x="112" y="377" type="line"/>
      <point x="150" y="556" type="line" smooth="yes"/>
      <point x="165" y="632"/>
      <point x="252" y="717"/>
      <point x="318" y="717" type="qcurve" smooth="yes"/>
      <point x="384" y="717"/>
      <point x="434" y="634"/>
      <point x="418" y="558" type="qcurve"/>
      <point x="347" y="558" type="line"/>
      <point x="357" y="607"/>
      <point x="336" y="650"/>
      <point x="306" y="650" type="qcurve" smooth="yes"/>
      <point x="245" y="650"/>
      <point x="229" y="572" type="qcurve" smooth="yes"/>
      <point x="188" y="377" type="line"/>
      <point x="308" y="377" type="line"/>
      <point x="294" y="310" type="line"/>
      <point x="174" y="310" type="line"/>
      <point x="145" y="167" type="line" smooth="yes"/>
      <point x="138" y="133"/>
      <point x="109" y="85"/>
      <point x="85" y="68" type="qcurve"/>
    </contour>
  </outline>
</glyph>
<glyph name="currency" format="2">
  <advance width="598"/>
  <unicode hex="00A4"/>
  <outline>
    <contour>
      <point x="397" y="166" type="line"/>
      <point x="335" y="130"/>
      <point x="271" y="130" type="qcurve" smooth="yes"/>
      <point x="206" y="130"/>
      <point x="161" y="166" type="qcurve"/>
      <point x="77" y="97" type="line"/>
      <point x="36" y="150" type="line"/>
      <point x="120" y="218" type="line"/>
      <point x="96" y="268"/>
      <point x="110" y="335" type="qcurve" smooth="yes"/>
      <point x="124" y="403"/>
      <point x="170" y="451" type="qcurve"/>
      <point x="114" y="521" type="line"/>
      <point x="177" y="572" type="line"/>
      <point x="231" y="503" type="line"/>
      <point x="290" y="539"/>
      <point x="356" y="539" type="qcurve" smooth="yes"/>
      <point x="421" y="539"/>
      <point x="466" y="503" type="qcurve"/>
      <point x="549" y="572" type="line"/>
      <point x="590" y="521" type="line"/>
      <point x="506" y="452" type="line"/>
      <point x="531" y="400"/>
      <point x="518" y="335" type="qcurve" smooth="yes"/>
      <point x="504" y="268"/>
      <point x="458" y="218" type="qcurve"/>
      <point x="514" y="148" type="line"/>
      <point x="451" y="96" type="line"/>
    </contour>
    <contour>
      <point x="433" y="278"/>
      <point x="445" y="335" type="qcurve" smooth="yes"/>
      <point x="457" y="392"/>
      <point x="397" y="468"/>
      <point x="341" y="468" type="qcurve" smooth="yes"/>
      <point x="284" y="468"/>
      <point x="195" y="392"/>
      <point x="183" y="335" type="qcurve" smooth="yes"/>
      <point x="171" y="277"/>
      <point x="229" y="201"/>
      <point x="286" y="201" type="qcurve" smooth="yes"/>
      <point x="342" y="201"/>
    </contour>
  </outline>
</glyph>
<glyph name="paragraph" format="2">
  <advance width="532"/>
  <unicode hex="00B6"/>
  <outline>
    <contour>
      <point x="233" y="275" type="line"/>
      <point x="158" y="282"/>
      <point x="90" y="403"/>
      <point x="108" y="492" type="qcurve" smooth="yes"/>
      <point x="121" y="551"/>
      <point x="191" y="649"/>
      <point x="295" y="707"/>
      <point x="356" y="707" type="qcurve" smooth="yes"/>
      <point x="532" y="707" type="line"/>
      <point x="353" y="-156" type="line"/>
      <point x="286" y="-156" type="line"/>
      <point x="451" y="640" type="line"/>
      <point x="377" y="640" type="line"/>
      <point x="212" y="-156" type="line"/>
      <point x="144" y="-156" type="line"/>
    </contour>
  </outline>
</glyph>
<glyph name="onequarter" format="2">
  <advance width="650"/>
  <unicode hex="00BC"/>
  <outline>
    <contour>
      <point x="88" y="279" type="line"/>
      <point x="160" y="627" type="line"/>
      <point x="87" y="575" type="line"/>
      <point x="103" y="656" type="line"/>
      <point x="177" y="707" type="line"/>
      <point x="250" y="707" type="line"/>
      <point x="161" y="279" type="line"/>
    </contour>
    <contour>
      <point x="549" y="707" type="line"/>
      <point x="148" y="0" type="line"/>
      <point x="83" y="0" type="line"/>
      <point x="484" y="707" type="line"/>
    </contour>
    <contour>
      <point x="586" y="76" type="line"/>
      <point x="554" y="76" type="line"/>
      <point x="538" y="0" type="line"/>
      <point x="466" y="0" type="line"/>
      <point x="482" y="76" type="line"/>
      <point x="345" y="76" type="line"/>
      <point x="358" y="139" type="line"/>
      <point x="512" y="428" type="line"/>
      <point x="584" y="428" type="line"/>
      <point x="430" y="139" type="line"/>
      <point x="495" y="139" type="line"/>
      <point x="515" y="238" type="line"/>
      <point x="587" y="238" type="line"/>
      <point x="567" y="139" type="line"/>
      <point x="599" y="139" type="line"/>
    </contour>
  </outline>
</glyph>
<glyph name="threequarters" format="2">
  <advance width="677"/>
  <unicode hex="00BE"/>
  <outline>
    <contour>
      <point x="185" y="272"/>
      <point x="137" y="272" type="qcurve" smooth="yes"/>
      <point x="87" y="272"/>
      <point x="44" y="327"/>
      <point x="54" y="374" type="qcurve" smooth="yes"/>
      <point x="59" y="399" type="line"/>
      <point x="126" y="399" type="line"/>
      <point x="121" y="376" type="line" smooth="yes"/>
      <point x="117" y="357"/>
      <point x="132" y="335"/>
      <point x="149" y="335" type="qcurve" smooth="yes"/>
      <point x="186" y="335"/>
      <point x="195" y="382" type="qcurve" smooth="yes"/>
      <point x="203" y="419" type="line" smooth="yes"/>
      <point x="209" y="445"/>
      <point x="194" y="468"/>
      <point x="172" y="468" type="qcurve" smooth="yes"/>
      <point x="154" y="468" type="line"/>
      <point x="167" y="530" type="line"/>
      <point x="185" y="530" type="line" smooth="yes"/>
      <point x="224" y="530"/>
      <point x="234" y="575" type="qcurve" smooth="yes"/>
      <point x="240" y="606" type="line" smooth="yes"/>
      <point x="249" y="651"/>
      <point x="214" y="651" type="qcurve" smooth="yes"/>
      <point x="197" y="651"/>
      <point x="175" y="630"/>
      <point x="171" y="610" type="qcurve" smooth="yes"/>
      <point x="166" y="587" type="line"/>
      <point x="98" y="587" type="line"/>
      <point x="103" y="613" type="line" smooth="yes"/>
      <point x="113" y="659"/>
      <point x="180" y="714"/>
      <point x="228" y="714" type="qcurve" smooth="yes"/>
      <point x="277" y="714"/>
      <point x="322" y="658"/>
      <point x="312" y="609" type="qcurve" smooth="yes"/>
      <point x="307" y="585" type="line" smooth="yes"/>
      <point x="300" y="554"/>
      <point x="270" y="514"/>
      <point x="245" y="503" type="qcurve"/>
      <point x="269" y="492"/>
      <point x="281" y="450"/>
      <point x="273" y="415" type="qcurve" smooth="yes"/>
      <point x="266" y="379" type="line" smooth="yes"/>
      <point x="256" y="330"/>
    </contour>
    <contour>
      <point x="601" y="707" type="line"/>
      <point x="200" y="0" type="line"/>
      <point x="135" y="0" type="line"/>
      <point x="536" y="707" type="line"/>
    </contour>
    <contour>
      <point x="613" y="76" type="line"/>
      <point x="582" y="76" type="line"/>
      <point x="566" y="0" type="line"/>
      <point x="494" y="0" type="line"/>
      <point x="510" y="76" type="line"/>
      <point x="373" y="76" type="line"/>
      <point x="386" y="139" type="line"/>
      <point x="540" y="428" type="line"/>
      <point x="612" y="428" type="line"/>
      <point x="457" y="139" type="line"/>
      <point x="523" y="139" type="line"/>
      <point x="543" y="238" type="line"/>
      <point x="615" y="238" type="line"/>
      <point x="595" y="139" type="line"/>
      <point x="626" y="139" type="line"/>
    </contour>
  </outline>
</glyph>
<glyph name="questiondown" format="2">
  <advance width="371"/>
  <unicode hex="00BF"/>
  <outline>
    <contour>
      <point x="203" y="529" type="line"/>
      <point x="283" y="529" type="line"/>
      <point x="262" y="430" type="line"/>
      <point x="182" y="430" type="line"/>
    </contour>
    <contour>
      <point x="-33" y="-79"/>
      <point x="-17" y="-1" type="qcurve" smooth="yes"/>
      <point x="-9" y="38"/>
      <point x="25" y="99"/>
      <point x="65" y="150" type="qcurve" smooth="yes"/>
      <point x="112" y="208" type="line" smooth="yes"/>
      <point x="135" y="238"/>
      <point x="154" y="274"/>
      <point x="160" y="304" type="qcurve" smooth="yes"/>
      <point x="168" y="340" type="line"/>
      <point x="242" y="340" type="line"/>
      <point x="233" y="300" type="line" smooth="yes"/>
      <point x="226" y="264"/>
      <point x="203" y="218"/>
      <point x="170" y="178" type="qcurve" smooth="yes"/>
      <point x="115" y="111" type="line" smooth="yes"/>
      <point x="89" y="79"/>
      <point x="65" y="32"/>
      <point x="58" y="-1" type="qcurve" smooth="yes"/>
      <point x="37" y="-101"/>
      <point x="112" y="-101" type="qcurve" smooth="yes"/>
      <point x="156" y="-101"/>
      <point x="202" y="-42"/>
      <point x="216" y="25" type="qcurve"/>
      <point x="291" y="25" type="line"/>
      <point x="249" y="-168"/>
      <point x="99" y="-168" type="qcurve" smooth="yes"/>
      <point x="26" y="-168"/>
    </contour>
  </outline>
</glyph>
<glyph name="Eth" format="2">
  <advance width="517"/>
  <unicode hex="00D0"/>
  <outline>
    <contour>
      <point x="534" y="600"/>
      <point x="512" y="493" type="qcurve" smooth="yes"/>
      <point x="454" y="214" type="line" smooth="yes"/>
      <point x="431" y="108"/>
      <point x="304" y="0"/>
      <point x="218" y="0" type="qcurve" smooth="yes"/>
      <point x="35" y="0" type="line"/>
      <point x="103" y="326" type="line"/>
      <point x="44" y="326" type="line"/>
      <point x="58" y="392" type="line"/>
      <point x="117" y="392" type="line"/>
      <point x="182" y="707" type="line"/>
      <point x="365" y="707" type="line" smooth="yes"/>
      <point x="451" y="707"/>
    </contour>
    <contour>
      <point x="435" y="485" type="line" smooth="yes"/>
      <point x="451" y="563"/>
      <point x="408" y="640"/>
      <point x="351" y="640" type="qcurve" smooth="yes"/>
      <point x="243" y="640" type="line"/>
      <point x="192" y="392" type="line"/>
      <point x="301" y="392" type="line"/>
      <point x="287" y="326" type="line"/>
      <point x="178" y="326" type="line"/>
      <point x="124" y="67" type="line"/>
      <point x="232" y="67" type="line" smooth="yes"/>
      <point x="287" y="67"/>
      <point x="363" y="140"/>
      <point x="378" y="213" type="qcurve" smooth="yes"/>
    </contour>
  </outline>
</glyph>
<glyph name="ae" format="2">
  <advance width="648"/>
  <unicode hex="00E6"/>
  <outline>
    <contour>
      <point x="346" y="245" type="line"/>
      <point x="333" y="181" type="line" smooth="yes"/>
      <point x="318" y="111"/>
      <point x="354" y="52"/>
      <point x="398" y="52" type="qcurve" smooth="yes"/>
      <point x="439" y="52"/>
      <point x="494" y="104"/>
      <point x="505" y="158" type="qcurve" smooth="yes"/>
      <point x="506" y="162" type="line"/>
      <point x="575" y="162" type="line"/>
      <point x="574" y="159" type="line" smooth="yes"/>
      <point x="557" y="76"/>
      <point x="458" y="-8"/>
      <point x="385" y="-8" type="qcurve" smooth="yes"/>
      <point x="297" y="-8"/>
      <point x="268" y="51" type="qcurve"/>
      <point x="242" y="22"/>
      <point x="170" y="-8"/>
      <point x="129" y="-8" type="qcurve" smooth="yes"/>
      <point x="59" y="-8"/>
      <point x="1" y="74"/>
      <point x="17" y="147" type="qcurve" smooth="yes"/>
      <point x="31" y="218"/>
      <point x="129" y="298"/>
      <point x="206" y="298" type="qcurve" smooth="yes"/>
      <point x="288" y="298" type="line"/>
      <point x="306" y="387" type="line" smooth="yes"/>
      <point x="325" y="476"/>
      <point x="243" y="476" type="qcurve" smooth="yes"/>
      <point x="205" y="476"/>
      <point x="155" y="435"/>
      <point x="148" y="398" type="qcurve" smooth="yes"/>
      <point x="146" y="390" type="line"/>
      <point x="80" y="390" type="line"/>
      <point x="82" y="399" type="line" smooth="yes"/>
      <point x="95" y="464"/>
      <point x="190" y="538"/>
      <point x="256" y="538" type="qcurve" smooth="yes"/>
      <point x="339" y="538"/>
      <point x="365" y="487" type="qcurve"/>
      <point x="417" y="537"/>
      <point x="495" y="538" type="qcurve" smooth="yes"/>
      <point x="569" y="538"/>
      <point x="634" y="443"/>
      <point x="615" y="351" type="qcurve" smooth="yes"/>
      <point x="593" y="245" type="line"/>
    </contour>
    <contour>
      <point x="382" y="418"/>
      <point x="368" y="349" type="qcurve" smooth="yes"/>
      <point x="357" y="298" type="line"/>
      <point x="534" y="298" type="line"/>
      <point x="545" y="351" type="line" smooth="yes"/>
      <point x="559" y="418"/>
      <point x="526" y="475"/>
      <point x="483" y="475" type="qcurve" smooth="yes"/>
      <point x="440" y="475"/>
    </contour>
    <contour>
      <point x="277" y="246" type="line"/>
      <point x="202" y="246" type="line" smooth="yes"/>
      <point x="107" y="246"/>
      <point x="87" y="148" type="qcurve" smooth="yes"/>
      <point x="67" y="52"/>
      <point x="149" y="52" type="qcurve" smooth="yes"/>
      <point x="191" y="52"/>
      <point x="248" y="105"/>
      <point x="258" y="153" type="qcurve" smooth="yes"/>
    </contour>
  </outline>
</glyph>
<glyph name="eth" format="2">
  <advance width="415"/>
  <unicode hex="00F0"/>
  <outline>
    <contour>
      <point x="384" y="356"/>
      <point x="370" y="287" type="qcurve" smooth="yes"/>
      <point x="348" y="184" type="line" smooth="yes"/>
      <point x="308" y="-10"/>
      <point x="150" y="-9" type="qcurve" smooth="yes"/>
      <point x="-6" y="-9"/>
      <point x="34" y="182" type="qcurve" smooth="yes"/>
      <point x="58" y="298" type="line" smooth="yes"/>
      <point x="96" y="483"/>
      <point x="235" y="483" type="qcurve" smooth="yes"/>
      <point x="271" y="483"/>
      <point x="292" y="471" type="qcurve"/>
      <point x="254" y="569" type="line"/>
      <point x="163" y="542" type="line"/>
      <point x="158" y="594" type="line"/>
      <point x="237" y="617" type="line"/>
      <point x="204" y="710" type="line"/>
      <point x="281" y="710" type="line"/>
      <point x="307" y="639" type="line"/>
      <point x="395" y="666" type="line"/>
      <point x="400" y="613" type="line"/>
      <point x="325" y="591" type="line"/>
      <point x="350" y="523" type="line" smooth="yes"/>
      <point x="375" y="457"/>
    </contour>
    <contour>
      <point x="304" y="306" type="line" smooth="yes"/>
      <point x="328" y="421"/>
      <point x="241" y="421" type="qcurve" smooth="yes"/>
      <point x="154" y="421"/>
      <point x="130" y="307" type="qcurve" smooth="yes"/>
      <point x="101" y="170" type="line" smooth="yes"/>
      <point x="77" y="54"/>
      <point x="164" y="54" type="qcurve" smooth="yes"/>
      <point x="251" y="54"/>
      <point x="275" y="170" type="qcurve" smooth="yes"/>
    </contour>
  </outline>
</glyph>
<glyph name="oslash" format="2">
  <advance width="418"/>
  <unicode hex="00F8"/>
  <outline>
    <contour>
      <point x="380" y="484" type="line"/>
      <point x="404" y="439"/>
      <point x="387" y="357" type="qcurve" smooth="yes"/>
      <point x="349" y="172" type="line" smooth="yes"/>
      <point x="330" y="80"/>
      <point x="228" y="-8"/>
      <point x="154" y="-8" type="qcurve" smooth="yes"/>
      <point x="96" y="-8"/>
      <point x="64" y="17" type="qcurve"/>
      <point x="31" y="-31" type="line"/>
      <point x="-10" y="-31" type="line"/>
      <point x="40" y="44" type="line"/>
      <point x="14" y="88"/>
      <point x="32" y="172" type="qcurve" smooth="yes"/>
      <point x="70" y="357" type="line" smooth="yes"/>
      <point x="90" y="450"/>
      <point x="192" y="538"/>
      <point x="268" y="538" type="qcurve" smooth="yes"/>
      <point x="326" y="538"/>
      <point x="356" y="512" type="qcurve"/>
      <point x="388" y="557" type="line"/>
      <point x="429" y="557" type="line"/>
    </contour>
    <contour>
      <point x="98" y="128" type="qcurve"/>
      <point x="312" y="446" type="line"/>
      <point x="296" y="475"/>
      <point x="254" y="475" type="qcurve" smooth="yes"/>
      <point x="211" y="475"/>
      <point x="153" y="418"/>
      <point x="139" y="349" type="qcurve" smooth="yes"/>
      <point x="103" y="180" type="line" smooth="yes"/>
      <point x="98" y="152"/>
    </contour>
    <contour>
      <point x="322" y="399" type="qcurve"/>
      <point x="106" y="82" type="line"/>
      <point x="124" y="54"/>
      <point x="166" y="54" type="qcurve" smooth="yes"/>
      <point x="209" y="54"/>
      <point x="267" y="113"/>
      <point x="280" y="180" type="qcurve" smooth="yes"/>
      <point x="316" y="349" type="line" smooth="yes"/>
      <point x="322" y="380"/>
    </contour>
  </outline>
</glyph>
<glyph name="florin" format="2">
  <advance width="392"/>
  <unicode hex="0192"/>
  <outline>
    <contour>
      <point x="-63" y="-89" type="line"/>
      <point x="-42" y="-89" type="line" smooth="yes"/>
      <point x="-13" y="-89"/>
      <point x="21" y="-74"/>
      <point x="48" y="-34"/>
      <point x="62" y="5" type="qcurve" smooth="yes"/>
      <point x="184" y="356" type="line"/>
      <point x="109" y="356" type="line"/>
      <point x="123" y="422" type="line"/>
      <point x="207" y="422" type="line"/>
      <point x="250" y="549" type="line" smooth="yes"/>
      <point x="279" y="632"/>
      <point x="368" y="707"/>
      <point x="443" y="707" type="qcurve" smooth="yes"/>
      <point x="474" y="707" type="line"/>
      <point x="460" y="640" type="line"/>
      <point x="429" y="640" type="line" smooth="yes"/>
      <point x="400" y="640"/>
      <point x="366" y="625"/>
      <point x="339" y="586"/>
      <point x="325" y="548" type="qcurve" smooth="yes"/>
      <point x="282" y="422" type="line"/>
      <point x="370" y="422" type="line"/>
      <point x="356" y="356" type="line"/>
      <point x="259" y="356" type="line"/>
      <point x="135" y="3" type="line" smooth="yes"/>
      <point x="106" y="-81"/>
      <point x="17" y="-156"/>
      <point x="-57" y="-156" type="qcurve" smooth="yes"/>
      <point x="-77" y="-156" type="line"/>
    </contour>
  </outline>
</glyph>
<glyph name="dotlessj" format="2">
  <advance width="199"/>
  <unicode hex="0237"/>
  <outline>
    <contour>
      <point x="-100" y="-93" type="line"/>
      <point x="-84" y="-93" type="line" smooth="yes"/>
      <point x="-11" y="-93"/>
      <point x="5" y="-12" type="qcurve" smooth="yes"/>
      <point x="117" y="529" type="line"/>
      <point x="188" y="529" type="line"/>
      <point x="75" y="-15" type="line" smooth="yes"/>
      <point x="61" y="-84"/>
      <point x="-27" y="-156"/>
      <point x="-95" y="-156" type="qcurve" smooth="yes"/>
      <point x="-113" y="-156" type="line"/>
    </contour>
  </outline>
</glyph>
<glyph name="ring" format="2">
  <advance width="524"/>
  <unicode hex="02DA"/>
  <outline>
    <contour>
      <point x="245" y="622"/>
      <point x="253" y="660" type="qcurve" smooth="yes"/>
      <point x="261" y="699"/>
      <point x="323" y="752"/>
      <point x="362" y="752" type="qcurve" smooth="yes"/>
      <point x="402" y="752"/>
      <point x="443" y="699"/>
      <point x="435" y="660" type="qcurve" smooth="yes"/>
      <point x="427" y="621"/>
      <point x="364" y="569"/>
      <point x="324" y="569" type="qcurve" smooth="yes"/>
      <point x="285" y="569"/>
    </contour>
    <contour>
      <point x="389" y="638"/>
      <point x="393" y="660" type="qcurve" smooth="yes"/>
      <point x="398" y="683"/>
      <point x="377" y="713"/>
      <point x="354" y="713" type="qcurve" smooth="yes"/>
      <point x="332" y="713"/>
      <point x="299" y="683"/>
      <point x="294" y="660" type="qcurve" smooth="yes"/>
      <point x="289" y="637"/>
      <point x="312" y="609"/>
      <point x="333" y="609" type="qcurve" smooth="yes"/>
      <point x="356" y="609"/>
    </contour>
  </outline>
</glyph>
<glyph name="tilde" format="2">
  <advance width="513"/>
  <unicode hex="02DC"/>
  <outline>
    <contour>
      <point x="227" y="656" type="line"/>
      <point x="249" y="675"/>
      <point x="280" y="691"/>
      <point x="299" y="691" type="qcurve" smooth="yes"/>
      <point x="314" y="691"/>
      <point x="334" y="682"/>
      <point x="346" y="673" type="qcurve" smooth="yes"/>
      <point x="358" y="664"/>
      <point x="378" y="654"/>
      <point x="391" y="654" type="qcurve" smooth="yes"/>
      <point x="406" y="654"/>
      <point x="431" y="670"/>
      <point x="456" y="692" type="qcurve"/>
      <point x="441" y="621" type="line"/>
      <point x="421" y="602"/>
      <point x="391" y="586"/>
      <point x="371" y="586" type="qcurve" smooth="yes"/>
      <point x="355" y="586"/>
      <point x="333" y="596"/>
      <point x="319" y="605" type="qcurve" smooth="yes"/>
      <point x="306" y="613"/>
      <point x="291" y="622"/>
      <point x="281" y="622" type="qcurve" smooth="yes"/>
      <point x="265" y="622"/>
      <point x="236" y="605"/>
      <point x="212" y="583" type="qcurve"/>
    </contour>
  </outline>
</glyph>
<glyph name="acutecomb.loclPLK" format="2">
  <unicode hex="0301"/>
  <outline>
    <contour>
      <point x="85" y="722" type="line"/>
      <point x="160" y="722" type="line"/>
      <point x="98" y="590" type="line"/>
      <point x="40" y="590" type="line"/>
    </contour>
  </outline>
</glyph>
<glyph name="Germandbls" format="2">
  <advance width="469"/>
  <unicode hex="1E9E"/>
  <outline>
    <contour>
      <point x="5" y="1" type="line"/>
      <point x="109" y="487" type="line"/>
      <point x="133" y="602"/>
      <point x="185" y="651" type="qcurve" smooth="yes"/>
      <point x="255" y="715"/>
      <point x="333" y="714" type="qcurve" smooth="yes"/>
      <point x="370" y="714"/>
      <point x="450" y="656"/>
      <point x="469" y="597" type="qcurve"/>
      <point x="312" y="401" type="line"/>
      <point x="382" y="401"/>
      <point x="424" y="351" type="qcurve" smooth="yes"/>
      <point x="471" y="295"/>
      <point x="451" y="199" type="qcurve" smooth="yes"/>
      <point x="443" y="165"/>
      <point x="423" y="113"/>
      <point x="392" y="68"/>
      <point x="369" y="49" type="qcurve" smooth="yes"/>
      <point x="334" y="20"/>
      <point x="267" y="-3"/>
      <point x="220" y="-3" type="qcurve" smooth="yes"/>
      <point x="142" y="-3" type="line"/>
      <point x="156" y="64" type="line"/>
      <point x="245" y="64" type="line" smooth="yes"/>
      <point x="269" y="64"/>
      <point x="300" y="72"/>
      <point x="318" y="86" type="qcurve" smooth="yes"/>
      <point x="364" y="118"/>
      <point x="381" y="197" type="qcurve" smooth="yes"/>
      <point x="388" y="231"/>
      <point x="382" y="283"/>
      <point x="358" y="314"/>
      <point x="323" y="330"/>
      <point x="300" y="330" type="qcurve" smooth="yes"/>
      <point x="226" y="330" type="line"/>
      <point x="241" y="403" type="line"/>
      <point x="398" y="594" type="line"/>
      <point x="357" y="652"/>
      <point x="320" y="652" type="qcurve" smooth="yes"/>
      <point x="304" y="652"/>
      <point x="281" y="647"/>
      <point x="256" y="633"/>
      <point x="243" y="620" type="qcurve" smooth="yes"/>
      <point x="197" y="580"/>
      <point x="179" y="496" type="qcurve" smooth="yes"/>
      <point x="74" y="1" type="line"/>
    </contour>
  </outline>
</glyph>
<glyph name="quoteright" format="2">
  <advance width="153"/>
  <unicode hex="2019"/>
  <outline>
    <contour>
      <point x="134" y="707" type="line"/>
      <point x="204" y="707" type="line"/>
      <point x="167" y="527" type="line"/>
      <point x="84" y="467" type="line"/>
    </contour>
  </outline>
</glyph>
<glyph name="quotedblright" format="2">
  <advance width="286"/>
  <unicode hex="201D"/>
  <outline>
    <contour>
      <point x="134" y="707" type="line"/>
      <point x="204" y="707" type="line"/>
      <point x="167" y="527" type="line"/>
      <point x="84" y="467" type="line"/>
    </contour>
    <contour>
      <point x="267" y="707" type="line"/>
      <point x="337" y="707" type="line"/>
      <point x="300" y="527" type="line"/>
      <point x="217" y="467" type="line"/>
    </contour>
  </outline>
</glyph>
<glyph name="bullet" format="2">
  <advance width="432"/>
  <unicode hex="2022"/>
  <outline>
    <contour>
      <point x="90" y="262"/>
      <point x="101" y="315" type="qcurve" smooth="yes"/>
      <point x="113" y="369"/>
      <point x="199" y="440"/>
      <point x="252" y="440" type="qcurve" smooth="yes"/>
      <point x="306" y="440"/>
      <point x="363" y="370"/>
      <point x="351" y="315" type="qcurve" smooth="yes"/>
      <point x="340" y="262"/>
      <point x="255" y="190"/>
      <point x="201" y="190" type="qcurve" smooth="yes"/>
      <point x="148" y="190"/>
    </contour>
  </outline>
</glyph>
<glyph name="guilsinglright" format="2">
  <advance width="274"/>
  <unicode hex="203A"/>
  <outline>
    <contour>
      <point x="38" y="161" type="line"/>
      <point x="168" y="270" type="line"/>
      <point x="84" y="380" type="line"/>
      <point x="100" y="458" type="line"/>
      <point x="245" y="270" type="line"/>
      <point x="22" y="83" type="line"/>
    </contour>
  </outline>
</glyph>
<glyph name="fraction" format="2">
  <advance width="451"/>
  <unicode hex="2044"/>
  <outline>
    <contour>
      <point x="422" y="707" type="line"/>
      <point x="483" y="707" type="line"/>
      <point x="67" y="0" type="line"/>
      <point x="5" y="0" type="line"/>
    </contour>
  </outline>
</glyph>
<glyph name="Euro" format="2">
  <advance width="465"/>
  <unicode hex="20AC"/>
  <outline>
    <contour>
      <point x="59" y="92"/>
      <point x="78" y="183" type="qcurve" smooth="yes"/>
      <point x="94" y="259" type="line"/>
      <point x="30" y="259" type="line"/>
      <point x="43" y="323" type="line"/>
      <point x="107" y="323" type="line"/>
      <point x="121" y="390" type="line"/>
      <point x="57" y="390" type="line"/>
      <point x="71" y="455" type="line"/>
      <point x="135" y="455" type="line"/>
      <point x="151" y="534" type="line" smooth="yes"/>
      <point x="168" y="618"/>
      <point x="268" y="717"/>
      <point x="350" y="717" type="qcurve" smooth="yes"/>
      <point x="425" y="717"/>
      <point x="486" y="630"/>
      <point x="471" y="550" type="qcurve"/>
      <point x="401" y="550" type="line"/>
      <point x="409" y="600"/>
      <point x="380" y="650"/>
      <point x="337" y="650" type="qcurve" smooth="yes"/>
      <point x="250" y="650"/>
      <point x="227" y="539" type="qcurve" smooth="yes"/>
      <point x="210" y="455" type="line"/>
      <point x="388" y="455" type="line"/>
      <point x="362" y="390" type="line"/>
      <point x="196" y="390" type="line"/>
      <point x="182" y="323" type="line"/>
      <point x="335" y="323" type="line"/>
      <point x="309" y="259" type="line"/>
      <point x="169" y="259" type="line"/>
      <point x="152" y="180" type="line" smooth="yes"/>
      <point x="140" y="121"/>
      <point x="165" y="58"/>
      <point x="214" y="58" type="qcurve" smooth="yes"/>
      <point x="256" y="58"/>
      <point x="306" y="109"/>
      <point x="320" y="160" type="qcurve"/>
      <point x="391" y="160" type="line"/>
      <point x="372" y="77"/>
      <point x="272" y="-8"/>
      <point x="199" y="-8" type="qcurve" smooth="yes"/>
      <point x="112" y="-8"/>
    </contour>
  </outline>
</glyph>
<glyph name="four.sups" format="2">
  <advance width="289"/>
  <outline>
    <contour>
      <point x="316" y="516" type="line"/>
      <point x="284" y="516" type="line"/>
      <point x="268" y="440" type="line"/>
      <point x="197" y="440" type="line"/>
      <point x="213" y="516" type="line"/>
      <point x="76" y="516" type="line"/>
      <point x="90" y="580" type="line"/>
      <point x="243" y="868" type="line"/>
      <point x="314" y="868" type="line"/>
      <point x="161" y="580" type="line"/>
      <point x="227" y="580" type="line"/>
      <point x="247" y="678" type="line"/>
      <point x="318" y="678" type="line"/>
      <point x="298" y="580" type="line"/>
      <point x="330" y="580" type="line"/>
    </contour>
  </outline>
</glyph>
<glyph name="one.sups" format="2">
  <advance width="203"/>
  <outline>
    <contour>
      <point x="194" y="788" type="line"/>
      <point x="120" y="737" type="line"/>
      <point x="137" y="818" type="line"/>
      <point x="210" y="868" type="line"/>
      <point x="283" y="868" type="line"/>
      <point x="194" y="440" type="line"/>
      <point x="121" y="440" type="line"/>
    </contour>
  </outline>
</glyph>
<glyph name="t_t" format="2">
  <advance width="564"/>
  <outline>
    <contour>
      <point x="469" y="465" type="line"/>
      <point x="402" y="142" type="line" smooth="yes"/>
      <point x="393" y="101"/>
      <point x="424" y="61"/>
      <point x="463" y="61" type="qcurve" smooth="yes"/>
      <point x="478" y="61" type="line"/>
      <point x="465" y="0" type="line"/>
      <point x="448" y="0" type="line" smooth="yes"/>
      <point x="303" y="0"/>
      <point x="331" y="139" type="qcurve" smooth="yes"/>
      <point x="399" y="465" type="line"/>
      <point x="207" y="465" type="line"/>
      <point x="140" y="142" type="line" smooth="yes"/>
      <point x="131" y="101"/>
      <point x="162" y="61"/>
      <point x="202" y="61" type="qcurve" smooth="yes"/>
      <point x="216" y="61" type="line"/>
      <point x="203" y="0" type="line"/>
      <point x="186" y="0" type="line" smooth="yes"/>
      <point x="41" y="0"/>
      <point x="69" y="139" type="qcurve" smooth="yes"/>
      <point x="137" y="465" type="line"/>
      <point x="70" y="465" type="line"/>
      <point x="81" y="519" type="line"/>
      <point x="148" y="519" type="line"/>
      <point x="173" y="640" type="line"/>
      <point x="250" y="672" type="line"/>
      <point x="218" y="519" type="line"/>
      <point x="410" y="519" type="line"/>
      <point x="435" y="640" type="line"/>
      <point x="512" y="672" type="line"/>
      <point x="480" y="519" type="line"/>
      <point x="581" y="519" type="line"/>
      <point x="570" y="465" type="line"/>
    </contour>
  </outline>
</glyph>
<glyph name="three.sups" format="2">
  <advance width="274"/>
  <outline>
    <contour>
      <point x="77" y="488"/>
      <point x="87" y="536" type="qcurve" smooth="yes"/>
      <point x="93" y="561" type="line"/>
      <point x="160" y="561" type="line"/>
      <point x="155" y="538" type="line" smooth="yes"/>
      <point x="151" y="519"/>
      <point x="165" y="497"/>
      <point x="182" y="497" type="qcurve" smooth="yes"/>
      <point x="219" y="497"/>
      <point x="229" y="544" type="qcurve" smooth="yes"/>
      <point x="237" y="581" type="line" smooth="yes"/>
      <point x="242" y="607"/>
      <point x="228" y="630"/>
      <point x="206" y="630" type="qcurve" smooth="yes"/>
      <point x="188" y="630" type="line"/>
      <point x="201" y="692" type="line"/>
      <point x="219" y="692" type="line" smooth="yes"/>
      <point x="258" y="692"/>
      <point x="267" y="737" type="qcurve" smooth="yes"/>
      <point x="274" y="768" type="line" smooth="yes"/>
      <point x="283" y="813"/>
      <point x="248" y="813" type="qcurve" smooth="yes"/>
      <point x="231" y="813"/>
      <point x="209" y="792"/>
      <point x="205" y="772" type="qcurve" smooth="yes"/>
      <point x="200" y="749" type="line"/>
      <point x="132" y="749" type="line"/>
      <point x="137" y="775" type="line" smooth="yes"/>
      <point x="147" y="821"/>
      <point x="214" y="876"/>
      <point x="262" y="876" type="qcurve" smooth="yes"/>
      <point x="311" y="876"/>
      <point x="355" y="820"/>
      <point x="345" y="771" type="qcurve" smooth="yes"/>
      <point x="340" y="746" type="line" smooth="yes"/>
      <point x="334" y="715"/>
      <point x="304" y="676"/>
      <point x="278" y="665" type="qcurve"/>
      <point x="303" y="654"/>
      <point x="314" y="611"/>
      <point x="307" y="577" type="qcurve" smooth="yes"/>
      <point x="299" y="541" type="line" smooth="yes"/>
      <point x="289" y="492"/>
      <point x="218" y="434"/>
      <point x="170" y="434" type="qcurve" smooth="yes"/>
      <point x="120" y="434"/>
    </contour>
  </outline>
</glyph>
<glyph name="two.sups" format="2">
  <advance width="277"/>
  <outline>
    <contour>
      <point x="82" y="502" type="line"/>
      <point x="238" y="684" type="line" smooth="yes"/>
      <point x="254" y="703"/>
      <point x="270" y="732"/>
      <point x="274" y="751" type="qcurve" smooth="yes"/>
      <point x="278" y="771" type="line" smooth="yes"/>
      <point x="282" y="790"/>
      <point x="270" y="813"/>
      <point x="252" y="813" type="qcurve" smooth="yes"/>
      <point x="217" y="813"/>
      <point x="207" y="766" type="qcurve" smooth="yes"/>
      <point x="202" y="743" type="line"/>
      <point x="134" y="743" type="line"/>
      <point x="141" y="774" type="line" smooth="yes"/>
      <point x="150" y="820"/>
      <point x="219" y="876"/>
      <point x="267" y="876" type="qcurve" smooth="yes"/>
      <point x="314" y="876"/>
      <point x="359" y="819"/>
      <point x="350" y="773" type="qcurve" smooth="yes"/>
      <point x="345" y="749" type="line" smooth="yes"/>
      <point x="339" y="722"/>
      <point x="313" y="679"/>
      <point x="291" y="652" type="qcurve" smooth="yes"/>
      <point x="165" y="504" type="line"/>
      <point x="294" y="504" type="line"/>
      <point x="280" y="440" type="line"/>
      <point x="69" y="440" type="line"/>
    </contour>
  </outline>
</glyph>
